<!--?xml version="1.0" standalone="no"?-->
              <svg id="sw-js-blob-svg" viewBox="0 0 100 100" xmlns="http://www.w3.org/2000/svg" version="1.1">
                    <defs> 
                        <linearGradient id="sw-gradient" x1="0" x2="1" y1="1" y2="0">
                            <stop id="stop1" stop-color="rgba(226.149, 81.803, 13.486, 1)" offset="0%"></stop>
                            <stop id="stop2" stop-color="rgba(251, 168, 31, 1)" offset="100%"></stop>
                        </linearGradient>
                    </defs>
                <path fill="url(#sw-gradient)" d="M22.2,-24.1C30.4,-19.6,39.7,-14.1,40.5,-7.4C41.4,-0.7,33.7,7.2,28,15.2C22.2,23.3,18.3,31.5,11.2,36.5C4.1,41.6,-6.2,43.4,-12.7,39.2C-19.2,34.9,-21.9,24.6,-23.8,16.2C-25.7,7.8,-26.9,1.4,-25.9,-4.6C-24.9,-10.7,-21.8,-16.5,-17.1,-21.6C-12.4,-26.6,-6.2,-31,0.4,-31.5C7,-32,14,-28.5,22.2,-24.1Z" width="100%" height="100%" transform="translate(50 50)" style="transition: all 0.3s;" stroke-width="0" stroke="url(#sw-gradient)"></path>
              </svg>